<?xml version="1.0" encoding="utf-8"?>
<!-- Svg Vector Icons : http://www.onlinewebfonts.com/icon -->
<!DOCTYPE svg PUBLIC "-//W3C//DTD SVG 1.1//EN" "http://www.w3.org/Graphics/SVG/1.1/DTD/svg11.dtd">
<svg version="1.1" xmlns="http://www.w3.org/2000/svg" xmlns:xlink="http://www.w3.org/1999/xlink" x="0px" y="0px" viewBox="0 0 1000 1000" enable-background="new 0 0 1000 1000" xml:space="preserve">
<metadata> Svg Vector Icons : http://www.onlinewebfonts.com/icon </metadata>
<g><path d="M615.8,307.2H870v40.4H615.8V307.2z"/><path d="M615.8,431.1H870v40.4H615.8V431.1L615.8,431.1z"/><path d="M319.3,588c-114,0-206.8-92.8-206.8-206.8c0-114,92.8-206.8,206.8-206.8c114,0,206.8,92.8,206.8,206.8C526.1,495.3,433.3,588,319.3,588z M319.3,214.8c-91.8,0-166.4,74.7-166.4,166.5c0,91.8,74.7,166.4,166.4,166.4c91.8,0,166.5-74.7,166.5-166.4C485.8,289.5,411.1,214.8,319.3,214.8z"/><path d="M628.6,857.2h-40.4c0-148.3-120.7-268.9-269-268.9C171,588.3,50.4,708.9,50.4,857.2H10c0-170.6,138.7-309.3,309.3-309.3C489.8,547.9,628.6,686.7,628.6,857.2z"/><path d="M224.8,163"/><path d="M642,844l29.2-204.7l-101.6,0.2l-0.1-40.4l148.2-0.3l-15.4,108.3l89.8-109.3h157.5V183.1H536.2v54.6h-40.4v-95H990v495.3H811.2L642,844z"/></g>
</svg>