<svg id="レイヤー_1" data-name="レイヤー 1" xmlns="http://www.w3.org/2000/svg" viewBox="0 0 541.08 490.34">
  <defs>
    <style>
    </style>
  </defs>
  <title>mini-logo-icon</title>
  <text x="-91.97" y="-146.78"/>
  <path class="cls-mini-logo-icon-1" d="M218.51,432.38c0,43.48,30.94,78.74,69.09,78.74a62.87,62.87,0,0,0,37.46-12.59l19.49,9.34c3.27,1.57,6.52-2.27,5-5.94l-8.19-20.16a85.37,85.37,0,0,0,15.3-49.39c0-43.48-30.93-78.73-69.09-78.73S218.51,388.9,218.51,432.38Z" transform="translate(-91.97 -146.78)"/>
  <path class="cls-mini-logo-icon-1" d="M362.51,305.68c18.8-26.86,17.79-60-2.27-74.06-7.26-5.08-16-7-25.13-6l-6.2-12.94c-1-2.18-4.41-1-5.22,1.81L319.28,230c-10.87,4.82-21.31,13.32-29.4,24.87-18.8,26.86-17.79,60,2.27,74.05S343.7,332.53,362.51,305.68Z" transform="translate(-91.97 -146.78)"/>
  <path class="cls-mini-logo-icon-1" d="M423.71,282.74c-28.49,16.45-40.61,48.8-27.07,72.25a42.81,42.81,0,0,0,21.54,18.25l.79,15.52c.14,2.6,3.81,3.15,5.68.84L435,377a67.71,67.71,0,0,0,37.78-9.28c28.49-16.45,40.61-48.8,27.07-72.25S452.2,266.3,423.71,282.74Z" transform="translate(-91.97 -146.78)"/>
  <path class="cls-mini-logo-icon-1" d="M482.33,525.13c35.17-24.62,48.41-66.39,29.58-93.29-6.82-9.74-16.91-16.18-28.67-19.28l-2.06-19c-.35-3.2-5.06-3.32-7.3-.19l-12.26,17.19c-15.65.91-32.37,6.59-47.5,17.19-35.17,24.62-48.41,66.4-29.57,93.3S447.16,549.76,482.33,525.13Z" transform="translate(-91.97 -146.78)"/>
  <path class="cls-mini-logo-icon-1" d="M585.43,547.69c20.51-30.41,30.06-59.84,21.33-65.72-3.15-2.14-8.28-.88-14.5,3l0-9.54c0-1.61-2.56.58-4,3.38l-7.64,15.36c-8.56,8-18,19.1-26.79,32.18-20.52,30.42-30.07,59.84-21.34,65.73S564.91,578.11,585.43,547.69Z" transform="translate(-91.97 -146.78)"/>
  <path class="cls-mini-logo-icon-1" d="M631,360.19c-6.38-36.22-26-63-43.91-59.88-6.46,1.14-11.8,6.06-15.68,13.58l-10.5-6.18c-1.76-1-2.72,2.43-1.49,5.37l6.8,16.12c-2.49,12-2.66,26.81.09,42.39,6.39,36.22,26,63,43.91,59.88S637.42,396.41,631,360.19Z" transform="translate(-91.97 -146.78)"/>
  <path class="cls-mini-logo-icon-1" d="M551.52,208.94c-19.32-15.64-40.44-21.58-47.18-13.26-2.44,3-2.65,7.49-1,12.7l-7.6.89c-1.28.15-.15,2.24,1.75,3.24l10.4,5.47a88.16,88.16,0,0,0,19.24,21.1c19.32,15.64,40.45,21.58,47.19,13.26S570.84,224.58,551.52,208.94Z" transform="translate(-91.97 -146.78)"/>
  <path class="cls-mini-logo-icon-1" d="M400.53,146.78c-32,0-58,12.2-58,27.25,0,5.45,3.41,10.52,9.28,14.78l-6.89,7.68c-1.16,1.3,1.67,2.58,4.38,2l14.86-3.23c9.95,3.77,22.6,6,36.39,6,32,0,58-12.2,58-27.25S432.57,146.78,400.53,146.78Z" transform="translate(-91.97 -146.78)"/>
  <path class="cls-mini-logo-icon-1" d="M206.05,205.1c-19,16-28.9,35.58-22,43.79,2.49,3,6.84,4,12.27,3.42l-.57,7.63c-.1,1.28,2.17.57,3.51-1.1l7.35-9.17A88,88,0,0,0,231,234.81c19-16,28.9-35.58,22-43.79S225.09,189.12,206.05,205.1Z" transform="translate(-91.97 -146.78)"/>
  <path class="cls-mini-logo-icon-1" d="M133.07,390.21c-.58,33.38,9.86,60.62,23.33,60.86,4.87.08,9.47-3.4,13.39-9.43l6.75,7.29c1.14,1.23,2.34-1.7,1.86-4.53l-2.62-15.53c3.55-10.31,5.81-23.45,6.06-37.81.58-33.38-9.86-60.63-23.33-60.86S133.65,356.83,133.07,390.21Z" transform="translate(-91.97 -146.78)"/>
  <path class="cls-mini-logo-icon-1" d="M205.32,575.41c27.59,20.79,54.55,31.54,60.22,24,2-2.72,1-7.47-2.43-13.4l8.83.63c1.48.11-.47-2.37-3-3.83l-14-8a188.61,188.61,0,0,0-29.07-26.62c-27.59-20.79-54.55-31.55-60.21-24S177.73,554.62,205.32,575.41Z" transform="translate(-91.97 -146.78)"/>
  <path class="cls-mini-logo-icon-1" d="M391.73,637.12c45.21,0,81.85-13.17,81.85-29.42,0-5.89-4.82-11.36-13.09-16l9.72-8.3c1.64-1.39-2.36-2.78-6.17-2.14l-21,3.49c-14-4.08-31.89-6.52-51.34-6.52-45.21,0-81.86,13.18-81.86,29.43S346.52,637.13,391.73,637.12Z" transform="translate(-91.97 -146.78)"/>
</svg>
